<svg xmlns="http://www.w3.org/2000/svg" width="800" height="450" viewBox="0 0 800 450" font-family="system-ui, -apple-system, Segoe UI, sans-serif">
  <defs>
    <linearGradient id="bg" x1="0" y1="0" x2="1" y2="1">
      <stop offset="0" stop-color="#0d1117"/>
      <stop offset="1" stop-color="#0a0e16"/>
    </linearGradient>
  </defs>
  <rect width="800" height="450" fill="url(#bg)" rx="16"/>
  <g opacity="0.05" stroke="#ffffff">
    <path d="M0 90h800M0 180h800M0 270h800M0 360h800M160 0v450M320 0v450M480 0v450M640 0v450"/>
  </g>

  <g stroke="#334155" stroke-width="2" fill="none" opacity="0.9">
    <path d="M180 140 C280 140 260 310 370 310"/>
    <path d="M470 140 C380 140 400 310 370 310"/>
    <path d="M370 310 C360 130 450 130 630 130"/>
    <path d="M370 310 C360 390 450 390 630 390"/>
  </g>

  <g font-size="13" fill="#64748b">
    <text x="130" y="92" text-anchor="middle">Research</text>
    <text x="620" y="96" text-anchor="middle">Publish</text>
    <text x="620" y="356" text-anchor="middle">Schedule</text>
  </g>

  <g font-size="14">
    <g>
      <rect x="90" y="112" width="180" height="56" rx="12" fill="#151b26" stroke="#3b82f6"/>
      <circle cx="124" cy="140" r="9" fill="#3b82f6" opacity="0.2"/>
      <circle cx="124" cy="140" r="4.5" fill="#3b82f6"/>
      <text x="144" y="145" fill="#e2e8f0" font-weight="600">Trigger · Lead captured</text>
    </g>
    <g>
      <rect x="280" y="282" width="180" height="56" rx="12" fill="#151b26" stroke="#8b5cf6"/>
      <path d="M300 314 l7 -6 a8 8 0 0 0 7 4 l5 -6" fill="none" stroke="#a78bfa" stroke-width="3" stroke-linecap="round" stroke-linejoin="round"/>
      <text x="320" y="319" fill="#e2e8f0" font-weight="600">AI · Draft copy</text>
    </g>
    <g>
      <rect x="545" y="102" width="180" height="56" rx="12" fill="#151b26" stroke="#06b6d4"/>
      <path d="M565 130 l8 8 l14 -16" fill="none" stroke="#22d3ee" stroke-width="3" stroke-linecap="round" stroke-linejoin="round"/>
      <text x="589" y="135" fill="#e2e8f0" font-weight="600">SEO · Optimise</text>
    </g>
    <g>
      <rect x="545" y="362" width="180" height="56" rx="12" fill="#151b26" stroke="#22c55e"/>
      <circle cx="580" cy="390" r="6" fill="#22c55e"/>
      <text x="598" y="395" fill="#e2e8f0" font-weight="600">Queue · Posting</text>
    </g>
  </g>

  <rect x="90" y="402" width="620" height="2" rx="1" fill="#1e293b"/>
  <text x="90" y="434" fill="#64748b" font-size="12">n8n · Zapier · Make — from lead capture to publishing</text>
</svg>